<?xml version="1.0" encoding="utf-8"?>
<!-- Generator: Adobe Illustrator 26.2.1, SVG Export Plug-In . SVG Version: 6.00 Build 0)  -->
<svg version="1.1" id="Capa_1" xmlns="http://www.w3.org/2000/svg" xmlns:xlink="http://www.w3.org/1999/xlink" x="0px" y="0px"
	 viewBox="0 0 100 100" style="enable-background:new 0 0 100 100;" xml:space="preserve">
<style type="text/css">
	.st0{clip-path:url(#SVGID_00000052795172577479268400000004681422466311109798_);}
	.st1{fill:none;stroke:#FFFFFF;stroke-width:2;}
	.st2{clip-path:url(#SVGID_00000178182343461710195700000011771888892179241346_);fill:#1D1D1B;}
	.st3{clip-path:url(#SVGID_00000178182343461710195700000011771888892179241346_);fill:none;stroke:#FFFFFF;stroke-width:2;}
	.st4{clip-path:url(#SVGID_00000159440875943700929680000000532512729530385593_);fill:none;stroke:#FFFFFF;stroke-width:2;}
	.st5{clip-path:url(#SVGID_00000005968044787369788020000012980616005841707701_);fill:none;stroke:#FFFFFF;stroke-width:2;}
</style>
<g>
	<defs>
		<rect id="SVGID_1_" x="7.5" y="7.5" width="85" height="85"/>
	</defs>
	<clipPath id="SVGID_00000131330022502981165370000005975651662789091483_">
		<use xlink:href="#SVGID_1_"  style="overflow:visible;"/>
	</clipPath>
	<path style="clip-path:url(#SVGID_00000131330022502981165370000005975651662789091483_);" d="M50,92.5c23.5,0,42.5-19,42.5-42.5
		S73.5,7.5,50,7.5S7.5,26.5,7.5,50S26.5,92.5,50,92.5"/>
</g>
<rect x="63" y="28.2" class="st1" width="4.7" height="23.9"/>
<g>
	<defs>
		<rect id="SVGID_00000042731578258365422850000006046789550893975695_" x="7.5" y="7.5" width="85" height="85"/>
	</defs>
	<clipPath id="SVGID_00000076600652965908259180000010208826762084367252_">
		<use xlink:href="#SVGID_00000042731578258365422850000006046789550893975695_"  style="overflow:visible;"/>
	</clipPath>
	<path style="clip-path:url(#SVGID_00000076600652965908259180000010208826762084367252_);fill:#1D1D1B;" d="M65.4,44.9
		c2.5,0,4.5-2.1,4.5-4.7c0-2.6-2-4.7-4.5-4.7c-2.5,0-4.5,2.1-4.5,4.7C60.9,42.8,62.9,44.9,65.4,44.9"/>
	
		<ellipse style="clip-path:url(#SVGID_00000076600652965908259180000010208826762084367252_);fill:none;stroke:#FFFFFF;stroke-width:2;" cx="65.4" cy="40.2" rx="4.5" ry="4.7"/>
</g>
<rect x="35.7" y="37.8" class="st1" width="6.3" height="4.1"/>
<g>
	<defs>
		<rect id="SVGID_00000119091415821337528510000013369875060444277665_" x="7.5" y="7.5" width="85" height="85"/>
	</defs>
	<clipPath id="SVGID_00000025407174798825525550000001392792912490386564_">
		<use xlink:href="#SVGID_00000119091415821337528510000013369875060444277665_"  style="overflow:visible;"/>
	</clipPath>
	
		<path style="clip-path:url(#SVGID_00000025407174798825525550000001392792912490386564_);fill:none;stroke:#FFFFFF;stroke-width:2;" d="
		M41.6,38.7l5.4-5.6c0,0,2.4,3.4,2.4,7.1c0,3.7-2.8,6.3-2.8,6.3L41.6,41"/>
	
		<path style="clip-path:url(#SVGID_00000025407174798825525550000001392792912490386564_);fill:none;stroke:#FFFFFF;stroke-width:2;" d="
		M36,38.8l-5.4-5.6c0,0-2.4,3.4-2.4,7.1c0,3.7,2.8,6.3,2.8,6.3l5.1-5.5"/>
</g>
<rect x="19.2" y="59" class="st1" width="61.7" height="6.3"/>
<rect x="24.8" y="59" class="st1" width="6.9" height="6.3"/>
<g>
	<defs>
		<rect id="SVGID_00000145779335727933225630000015089562297466620312_" x="7.5" y="7.5" width="85" height="85"/>
	</defs>
	<clipPath id="SVGID_00000134210418232185767720000006284915082535033525_">
		<use xlink:href="#SVGID_00000145779335727933225630000015089562297466620312_"  style="overflow:visible;"/>
	</clipPath>
	
		<path style="clip-path:url(#SVGID_00000134210418232185767720000006284915082535033525_);fill:none;stroke:#FFFFFF;stroke-width:2;" d="
		M70.3,63.3c0.6,0,1.1-0.5,1.1-1.2c0-0.6-0.5-1.2-1.1-1.2s-1.1,0.5-1.1,1.2C69.2,62.8,69.7,63.3,70.3,63.3z"/>
	
		<path style="clip-path:url(#SVGID_00000134210418232185767720000006284915082535033525_);fill:none;stroke:#FFFFFF;stroke-width:2;" d="
		M64.3,63.3c0.6,0,1.1-0.5,1.1-1.2c0-0.6-0.5-1.2-1.1-1.2c-0.6,0-1.1,0.5-1.1,1.2C63.2,62.8,63.7,63.3,64.3,63.3z"/>
	
		<path style="clip-path:url(#SVGID_00000134210418232185767720000006284915082535033525_);fill:none;stroke:#FFFFFF;stroke-width:2;" d="
		M58.3,63.3c0.6,0,1.1-0.5,1.1-1.2c0-0.6-0.5-1.2-1.1-1.2c-0.6,0-1.1,0.5-1.1,1.2C57.2,62.8,57.7,63.3,58.3,63.3z"/>
</g>
<line class="st1" x1="25.7" y1="62.3" x2="22" y2="62.3"/>
</svg>
