<?xml version="1.0" encoding="utf-8"?>
<!-- Generator: Adobe Illustrator 26.2.1, SVG Export Plug-In . SVG Version: 6.00 Build 0)  -->
<svg version="1.1" id="Capa_1" xmlns="http://www.w3.org/2000/svg" xmlns:xlink="http://www.w3.org/1999/xlink" x="0px" y="0px"
	 viewBox="0 0 100 100" style="enable-background:new 0 0 100 100;" xml:space="preserve">
<style type="text/css">
	.st0{clip-path:url(#SVGID_00000094612193473441643420000008994435006528891315_);fill:#00A97A;}
	.st1{clip-path:url(#SVGID_00000094612193473441643420000008994435006528891315_);fill:none;stroke:#FFFFFF;stroke-width:2.345;}
	.st2{clip-path:url(#SVGID_00000094612193473441643420000008994435006528891315_);fill:#FFFFFF;}
</style>
<g>
	<defs>
		<rect id="SVGID_1_" x="7" y="7" width="85" height="85"/>
	</defs>
	<clipPath id="SVGID_00000106840240361549129510000002210846832089728671_">
		<use xlink:href="#SVGID_1_"  style="overflow:visible;"/>
	</clipPath>
	<path style="clip-path:url(#SVGID_00000106840240361549129510000002210846832089728671_);fill:#00A97A;" d="M49.5,92
		C73,92,92,73,92,49.5S73,7,49.5,7S7,26,7,49.5S26,92,49.5,92"/>
	
		<path style="clip-path:url(#SVGID_00000106840240361549129510000002210846832089728671_);fill:none;stroke:#FFFFFF;stroke-width:2.345;" d="
		M29.1,73.5c0,1.8,1.5,3.3,3.3,3.3h34.2c1.8,0,3.3-1.5,3.3-3.3V33.1l-12.3-11H32.4c-1.8,0-3.3,1.5-3.3,3.3V73.5z"/>
	<path style="clip-path:url(#SVGID_00000106840240361549129510000002210846832089728671_);fill:#FFFFFF;" d="M68.5,33.9h-9
		c-1.2,0-2.1-1.1-2.1-2.4v-8.7C57.3,21.5,68.5,33.9,68.5,33.9"/>
	
		<path style="clip-path:url(#SVGID_00000106840240361549129510000002210846832089728671_);fill:none;stroke:#FFFFFF;stroke-width:2.345;" d="
		M68.5,33.9h-9c-1.2,0-2.1-1.1-2.1-2.4v-8.7C57.3,21.5,68.5,33.9,68.5,33.9z"/>
	<path style="clip-path:url(#SVGID_00000106840240361549129510000002210846832089728671_);fill:#FFFFFF;" d="M23.7,46.1
		c-1.8,0-3.3,1.5-3.3,3.3v16.1c0,1.8,1.5,3.3,3.3,3.3H61c1.8,0,3.3-1.5,3.3-3.3V49.4c0-1.8-1.5-3.3-3.3-3.3H23.7z"/>
	<path style="clip-path:url(#SVGID_00000106840240361549129510000002210846832089728671_);fill:#00A97A;" d="M54,52.5l-2.6,7.9
		l-2.6-7.9h-3l4.1,10.9h2.8l4.3-10.9L54,52.5z M40.9,63.5c0.8,0,1.5-0.2,2.1-0.5c0.6-0.3,1-0.7,1.3-1.3c0.3-0.5,0.5-1.1,0.5-1.8
		c0-0.6-0.1-1.1-0.4-1.5c-0.3-0.4-0.6-0.7-1-1c-0.4-0.2-1-0.5-1.7-0.7c-0.6-0.2-1-0.3-1.2-0.4c-0.3-0.1-0.5-0.2-0.6-0.4
		c-0.2-0.2-0.3-0.4-0.3-0.7c0-0.4,0.1-0.6,0.4-0.8c0.3-0.2,0.7-0.3,1.2-0.3c0.5,0,1.1,0.1,1.6,0.3c0.5,0.2,1,0.5,1.5,0.9v-2.5
		c-0.5-0.3-1-0.4-1.5-0.5c-0.5-0.1-1-0.2-1.7-0.2c-0.9,0-1.7,0.2-2.3,0.5s-1.1,0.7-1.4,1.3c-0.3,0.5-0.5,1.1-0.5,1.7
		c0,0.9,0.2,1.5,0.7,2c0.5,0.4,1.1,0.8,1.9,1.1c0.1,0,0.3,0.1,0.6,0.2c0.7,0.2,1.3,0.5,1.6,0.6c0.3,0.2,0.5,0.5,0.5,0.8
		c0,0.8-0.5,1.2-1.5,1.2c-0.6,0-1.2-0.1-1.8-0.3c-0.6-0.2-1.2-0.5-1.7-0.9v2.5c0.5,0.3,1.1,0.5,1.7,0.6C39.3,63.5,40,63.5,40.9,63.5
		 M31.8,63.5c0.6,0,1.2-0.1,1.8-0.2c0.6-0.1,1.2-0.3,1.6-0.6v-2.3c-0.5,0.3-1.1,0.6-1.6,0.8c-0.5,0.2-1,0.2-1.4,0.2
		c-1.1,0-1.8-0.3-2.3-0.8c-0.5-0.5-0.8-1.5-0.8-2.8c0-1.3,0.2-2.2,0.7-2.8c0.5-0.6,1.2-0.8,2.2-0.8c1,0,2.1,0.3,3.1,1V53
		c-1.2-0.5-2.4-0.8-3.5-0.8c-3.6,0-5.3,1.9-5.3,5.7C26.4,61.6,28.2,63.5,31.8,63.5"/>
</g>
</svg>
