<?xml version="1.0" encoding="utf-8"?>
<!-- Generator: Adobe Illustrator 26.2.1, SVG Export Plug-In . SVG Version: 6.00 Build 0)  -->
<svg version="1.1" id="Capa_1" xmlns="http://www.w3.org/2000/svg" xmlns:xlink="http://www.w3.org/1999/xlink" x="0px" y="0px"
	 viewBox="0 0 100 100" style="enable-background:new 0 0 100 100;" xml:space="preserve">
<style type="text/css">
	.st0{clip-path:url(#SVGID_00000053527934069268626820000001823479161279737507_);}
	.st1{fill:none;stroke:#FFFFFF;stroke-width:2;}
	.st2{clip-path:url(#SVGID_00000050652456237148198240000009139870487461305002_);fill:none;stroke:#FFFFFF;stroke-width:2;}
	.st3{clip-path:url(#SVGID_00000139255191491106181140000005310366082514718621_);fill:none;stroke:#FFFFFF;stroke-width:2;}
</style>
<g>
	<defs>
		<rect id="SVGID_1_" x="7.5" y="9.2" width="85" height="85"/>
	</defs>
	<clipPath id="SVGID_00000111154727596264388840000006864487371820741287_">
		<use xlink:href="#SVGID_1_"  style="overflow:visible;"/>
	</clipPath>
	<path style="clip-path:url(#SVGID_00000111154727596264388840000006864487371820741287_);" d="M50,94.2c23.5,0,42.5-19,42.5-42.5
		S73.5,9.2,50,9.2S7.5,28.2,7.5,51.7S26.5,94.2,50,94.2"/>
</g>
<polyline class="st1" points="59.2,34.3 65.2,36.8 65.2,71.9 34.8,71.9 34.8,36.8 41.4,33.6 "/>
<g>
	<defs>
		<rect id="SVGID_00000075141204760812893090000003459357386613187753_" x="7.5" y="9.2" width="85" height="85"/>
	</defs>
	<clipPath id="SVGID_00000007397131027282763540000015745222616866923186_">
		<use xlink:href="#SVGID_00000075141204760812893090000003459357386613187753_"  style="overflow:visible;"/>
	</clipPath>
	
		<path style="clip-path:url(#SVGID_00000007397131027282763540000015745222616866923186_);fill:none;stroke:#FFFFFF;stroke-width:2;" d="
		M49.8,45.1L59,33.9c0,0-2.8-2.4-9.3-2.4s-9,2.4-9,2.4L49.8,45.1z"/>
</g>
<polyline class="st1" points="59.1,33.7 57,48.1 49.9,45.3 "/>
<polyline class="st1" points="40.8,33.7 42.9,48.1 50,45.3 50,71.5 "/>
<g>
	<defs>
		<rect id="SVGID_00000048493284299009361880000005937924711083543210_" x="7.5" y="9.2" width="85" height="85"/>
	</defs>
	<clipPath id="SVGID_00000075128738360979894070000017065617286952783246_">
		<use xlink:href="#SVGID_00000048493284299009361880000005937924711083543210_"  style="overflow:visible;"/>
	</clipPath>
	
		<path style="clip-path:url(#SVGID_00000075128738360979894070000017065617286952783246_);fill:none;stroke:#FFFFFF;stroke-width:2;" d="
		M57,35.7c-1.5-0.6-3.9-1.3-7.4-1.3c-3.3,0-5.6,0.6-7,1.2"/>
	
		<circle style="clip-path:url(#SVGID_00000075128738360979894070000017065617286952783246_);fill:none;stroke:#FFFFFF;stroke-width:2;" cx="52.8" cy="51.6" r="0.5"/>
	
		<circle style="clip-path:url(#SVGID_00000075128738360979894070000017065617286952783246_);fill:none;stroke:#FFFFFF;stroke-width:2;" cx="52.8" cy="59" r="0.5"/>
	
		<circle style="clip-path:url(#SVGID_00000075128738360979894070000017065617286952783246_);fill:none;stroke:#FFFFFF;stroke-width:2;" cx="52.8" cy="66.4" r="0.5"/>
</g>
</svg>
