<?xml version="1.0" encoding="utf-8"?>
<!-- Generator: Adobe Illustrator 26.2.1, SVG Export Plug-In . SVG Version: 6.00 Build 0)  -->
<svg version="1.1" id="Capa_1" xmlns="http://www.w3.org/2000/svg" xmlns:xlink="http://www.w3.org/1999/xlink" x="0px" y="0px"
	 viewBox="0 0 100 100" style="enable-background:new 0 0 100 100;" xml:space="preserve">
<style type="text/css">
	.st0{clip-path:url(#SVGID_00000100349403882364018990000003601411032994937259_);}
	.st1{clip-path:url(#SVGID_00000100349403882364018990000003601411032994937259_);fill:none;stroke:#FFFFFF;stroke-width:2;}
</style>
<g>
	<defs>
		<rect id="SVGID_1_" x="7.5" y="7.5" width="85" height="85"/>
	</defs>
	<clipPath id="SVGID_00000147921300324641726720000016593453933852604593_">
		<use xlink:href="#SVGID_1_"  style="overflow:visible;"/>
	</clipPath>
	<path style="clip-path:url(#SVGID_00000147921300324641726720000016593453933852604593_);" d="M50,92.5c23.5,0,42.5-19,42.5-42.5
		S73.5,7.5,50,7.5S7.5,26.5,7.5,50S26.5,92.5,50,92.5"/>
	
		<ellipse style="clip-path:url(#SVGID_00000147921300324641726720000016593453933852604593_);fill:none;stroke:#FFFFFF;stroke-width:2;" cx="20.4" cy="64.1" rx="1.6" ry="2.4"/>
	
		<path style="clip-path:url(#SVGID_00000147921300324641726720000016593453933852604593_);fill:none;stroke:#FFFFFF;stroke-width:2;" d="
		M72.2,36.3v8.5c0,0-0.3,1-2,1c-1.7,0-1.7-0.8-1.7-0.8v-6"/>
	
		<path style="clip-path:url(#SVGID_00000147921300324641726720000016593453933852604593_);fill:none;stroke:#FFFFFF;stroke-width:2;" d="
		M19.8,61.8l56.7-32.5c0,0,2-1.1,2.5,0.5c0.7,2.2-1.7,3.6-1.7,3.6l-56.6,33"/>
	
		<path style="clip-path:url(#SVGID_00000147921300324641726720000016593453933852604593_);fill:none;stroke:#FFFFFF;stroke-width:2;" d="
		M33,59.3v8.5c0,0-0.3,1-2,1c-1.7,0-1.7-0.8-1.7-0.8v-6"/>
</g>
</svg>
