<?xml version="1.0" encoding="utf-8"?>
<!-- Generator: Adobe Illustrator 26.3.1, SVG Export Plug-In . SVG Version: 6.00 Build 0)  -->
<svg version="1.1" id="Capa_1" xmlns="http://www.w3.org/2000/svg" xmlns:xlink="http://www.w3.org/1999/xlink" x="0px" y="0px"
	 viewBox="0 0 100 100" style="enable-background:new 0 0 100 100;" xml:space="preserve">
<style type="text/css">
	.st0{clip-path:url(#SVGID_00000064348302189936426190000005127868723040411533_);fill:#E7E2E2;}
	.st1{clip-path:url(#SVGID_00000064348302189936426190000005127868723040411533_);fill:#FFFFFF;}
</style>
<g>
	<defs>
		<rect id="SVGID_1_" x="7.5" y="7.5" width="85" height="85"/>
	</defs>
	<clipPath id="SVGID_00000018947791906910625940000010301339695250199181_">
		<use xlink:href="#SVGID_1_"  style="overflow:visible;"/>
	</clipPath>
	<path style="clip-path:url(#SVGID_00000018947791906910625940000010301339695250199181_);fill:#E7E2E2;" d="M50,92.5
		c23.5,0,42.5-19,42.5-42.5S73.5,7.5,50,7.5S7.5,26.5,7.5,50S26.5,92.5,50,92.5"/>
	<path style="clip-path:url(#SVGID_00000018947791906910625940000010301339695250199181_);fill:#FFFFFF;" d="M50,27.8
		c-1.3,0-2.3,0.4-3.2,1.3c-0.8,0.9-1.3,2-1.3,3.4c0,1.3,0.4,2.4,1.3,3.3s1.9,1.3,3.2,1.3c1.3,0,2.3-0.4,3.2-1.3
		c0.8-0.9,1.3-2,1.3-3.3c0-1.4-0.4-2.5-1.3-3.4C52.3,28.2,51.3,27.8,50,27.8 M46.1,73.7h7.8V41.6h-7.8V73.7z"/>
</g>
</svg>
