<svg xmlns="http://www.w3.org/2000/svg" viewBox="0 0 194.91 111.93"><defs><style>.cls-1{fill:#fbba00;}.cls-2{fill:#3d3935;}</style></defs><g id="GRAFICO"><path class="cls-1" d="M143.92,40.2c2.61,7.15,11.84,7.71,13,7.28.78-.29,1.12-1.3.24-2.18-1-1-5.38-1.13-5.89-3.69s2.15-3.75,1-7A4.14,4.14,0,0,0,147,32.3c-2.52.92-4.41,4.14-3,7.9m3-4.18a1.4,1.4,0,1,1,1.14,1.62A1.41,1.41,0,0,1,146.91,36"/><path class="cls-1" d="M143.52,55.14a4.14,4.14,0,0,1-5.37-2.32c-1.1-3.25,1.52-4.54,1-7s-4.85-2.67-5.89-3.7c-.88-.88-.54-1.88.24-2.17,1.17-.43,10.4.13,13,7.28,1.39,3.77-.48,7-3,7.9"/><path class="cls-2" d="M99,58.83a9.38,9.38,0,0,1-.72,3.67,6.56,6.56,0,0,1-4.17,3.72,9.22,9.22,0,0,1-6.69-.14,6.74,6.74,0,0,1-4.33-5.93c-.06-.64-.11-1.28-.11-1.94V47.77a1.21,1.21,0,0,1,1.18-1.19,1.2,1.2,0,0,1,1.18,1.19c0,.22,0,7,0,11a9.53,9.53,0,0,0,.48,2.64,4.39,4.39,0,0,0,3.2,2.7,7.26,7.26,0,0,0,4,0,4.69,4.69,0,0,0,3.34-3.42,10.18,10.18,0,0,0,.23-2c0-3.93,0-10.69,0-10.92a1.2,1.2,0,0,1,1.2-1.19A1.19,1.19,0,0,1,99,47.77c0,.22,0,7.06,0,11.06"/><path class="cls-2" d="M79.43,66.46a1.2,1.2,0,0,1-1.18-1.2c0-.19,0-7.26,0-11.34A5.3,5.3,0,0,0,77,50.26a4.57,4.57,0,0,0-4.78-1.41,4.45,4.45,0,0,0-3.42,3.62,8.31,8.31,0,0,0-.21,1.87c0,3.93,0,10.84,0,10.84a1.26,1.26,0,0,1-2.51,0c0-.27,0-7.45-.05-11.64a4.84,4.84,0,0,0-2.7-4.4,4.77,4.77,0,0,0-6.51,2.56,7.93,7.93,0,0,0-.42,2.37c0,4,0,10.92,0,11.19a1.2,1.2,0,0,1-1.17,1.24A1.19,1.19,0,0,1,54,65.33V53.81a8.75,8.75,0,0,1,.88-4,6.23,6.23,0,0,1,5.4-3.45,8.33,8.33,0,0,1,4.56.79,6.08,6.08,0,0,1,2.5,2.42c0-.06.17-.3.19-.37a6.18,6.18,0,0,1,4.44-2.76,7.75,7.75,0,0,1,5.36.76,6.51,6.51,0,0,1,3.23,5.19,13.46,13.46,0,0,1,.12,1.79c0,4,0,10.84,0,11.1a1.18,1.18,0,0,1-1.2,1.21"/><path class="cls-2" d="M39.55,56.05a3.64,3.64,0,0,1,1.09-.48A3.46,3.46,0,0,1,42,55.39c1.37,0,2.75,0,4.13,0a3,3,0,0,0,3.2-3c.11-1.55-.56-3.42-2.84-3.6a11.81,11.81,0,0,0-2.52.08,4.53,4.53,0,0,0-4.16,3.91,23.74,23.74,0,0,0-.23,3.34m9.89,9.82a9.21,9.21,0,0,1-8.38,0,6.74,6.74,0,0,1-3.67-5.6,39.75,39.75,0,0,1,0-7.79c.4-3.42,2.84-5.53,6.28-6a9.21,9.21,0,0,1,4.11.16,5.4,5.4,0,0,1,3.87,5.79A5.54,5.54,0,0,1,47,57.67c-1.56.16-3.19.06-4.75.11a6.9,6.9,0,0,0-1.64.22c-.86.26-1.08.53-1,1.81a5.21,5.21,0,0,0,1.57,3.34,5.37,5.37,0,0,0,3,1.23,6.08,6.08,0,0,0,4.38-.81,14.3,14.3,0,0,0,1.46-1.22,1.14,1.14,0,0,1,1.48.08A1.25,1.25,0,0,1,51.65,64a6.48,6.48,0,0,1-2.21,1.85"/><path class="cls-2" d="M113.63,65.71a9.23,9.23,0,0,1-8.58.11,6.21,6.21,0,0,1-3.64-5.39,47,47,0,0,1,0-7.69c.3-3.47,2.78-5.79,6.3-6.3a8.65,8.65,0,0,1,6.94,1.69c.19.16.39.34.56.51s.27.31.43.5a1.11,1.11,0,0,1-.12,1.65,1.15,1.15,0,0,1-1.73-.21,2.66,2.66,0,0,0-.23-.24,6.32,6.32,0,0,0-8.52-.08,5.08,5.08,0,0,0-1.38,3.61c0,1.94-.06,3.86,0,5.78a4.9,4.9,0,0,0,4.82,4.75,6.25,6.25,0,0,0,3.88-.74A13.25,13.25,0,0,0,114,62.51a1.13,1.13,0,0,1,1.6-.13,1.1,1.1,0,0,1,.14,1.54,7,7,0,0,1-2.09,1.79"/><path class="cls-2" d="M130.52,57.11a3.53,3.53,0,0,1-1.09.48,3.28,3.28,0,0,1-1.33.17c-1.37,0-2.75,0-4.12,0a3,3,0,0,0-3.2,3c-.11,1.55.56,3.43,2.83,3.6a10.72,10.72,0,0,0,2.53-.08,4.53,4.53,0,0,0,4.16-3.9,31.56,31.56,0,0,0,.22-3.34m-9.9-9.81a9.21,9.21,0,0,1,8.38,0,6.73,6.73,0,0,1,3.66,5.6,39,39,0,0,1,0,7.79c-.4,3.42-2.85,5.53-6.28,6a9.25,9.25,0,0,1-4.12-.16,5.42,5.42,0,0,1-3.87-5.79,5.53,5.53,0,0,1,4.72-5.26c1.55-.16,3.19-.07,4.75-.12a6.74,6.74,0,0,0,1.63-.22c.87-.26,1.09-.53,1-1.81A5.14,5.14,0,0,0,128.86,50a5.37,5.37,0,0,0-3-1.23,6.08,6.08,0,0,0-4.38.81A14.3,14.3,0,0,0,120,50.82a1.15,1.15,0,0,1-1.49-.08,1.25,1.25,0,0,1-.11-1.58,6.2,6.2,0,0,1,2.21-1.86"/><path class="cls-1" d="M37.37,73.58h.84l1.29,3.8,1.27-3.8h.84l1.28,3.8,1.27-3.8H45l-1.7,4.6h-.84l-1.27-3.61-1.27,3.61h-.85Z"/><path class="cls-1" d="M49.63,74a1.79,1.79,0,0,1,.46,1.31v2.84h-.81V75.56a1.13,1.13,0,0,0-1.22-1.24,1.39,1.39,0,0,0-1.06.45,1.69,1.69,0,0,0-.4,1.15v2.26h-.8V71.73h.8v2.84a1.79,1.79,0,0,1,1.76-1A1.71,1.71,0,0,1,49.63,74Z"/><path class="cls-1" d="M55,74.19a2.6,2.6,0,0,1,.55,1.75c0,.12,0,.2,0,.26H51.9a1.6,1.6,0,0,0,.52,1,1.51,1.51,0,0,0,1,.37,1.91,1.91,0,0,0,.76-.15,1.75,1.75,0,0,0,.61-.42l.45.47a2.35,2.35,0,0,1-.82.56,2.78,2.78,0,0,1-1.06.2,2.52,2.52,0,0,1-1.21-.29,2,2,0,0,1-.81-.82,2.44,2.44,0,0,1-.3-1.21,2.41,2.41,0,0,1,.3-1.21,2.06,2.06,0,0,1,.81-.82,2.34,2.34,0,0,1,1.19-.3A2,2,0,0,1,55,74.19Zm-.18,1.39a1.46,1.46,0,0,0-.42-1,1.42,1.42,0,0,0-1-.36,1.45,1.45,0,0,0-1,.36,1.59,1.59,0,0,0-.49,1Z"/><path class="cls-1" d="M58.1,73.82a1.88,1.88,0,0,1,1-.26v.78a1.5,1.5,0,0,0-1.14.37,1.54,1.54,0,0,0-.5,1.05v2.42h-.81v-4.6h.81v1A1.7,1.7,0,0,1,58.1,73.82Z"/><path class="cls-1" d="M63.44,74.19A2.6,2.6,0,0,1,64,75.94v.26H60.34a1.55,1.55,0,0,0,.52,1,1.51,1.51,0,0,0,1,.37,1.94,1.94,0,0,0,.76-.15,1.85,1.85,0,0,0,.61-.42l.45.47a2.35,2.35,0,0,1-.82.56,2.82,2.82,0,0,1-1.06.2,2.49,2.49,0,0,1-1.21-.29,2.09,2.09,0,0,1-.82-.82,2.55,2.55,0,0,1-.29-1.21,2.52,2.52,0,0,1,.29-1.21,2.15,2.15,0,0,1,.82-.82,2.34,2.34,0,0,1,1.19-.3A2,2,0,0,1,63.44,74.19Zm-.19,1.39a1.32,1.32,0,0,0-1.42-1.35,1.48,1.48,0,0,0-1,.36,1.53,1.53,0,0,0-.48,1Z"/><path class="cls-1" d="M69.28,74.28a1.61,1.61,0,0,0-.8.2,1.44,1.44,0,0,0-.56.56,1.8,1.8,0,0,0-.19.85,1.74,1.74,0,0,0,.19.84,1.35,1.35,0,0,0,.54.57,1.48,1.48,0,0,0,.79.21,2.07,2.07,0,0,0,.8-.15,1.5,1.5,0,0,0,.59-.43l.46.47a2,2,0,0,1-.8.6,2.68,2.68,0,0,1-1.09.21A2.47,2.47,0,0,1,68,77.92a2.09,2.09,0,0,1-.81-.83,2.37,2.37,0,0,1-.29-1.2,2.41,2.41,0,0,1,.29-1.21,2.09,2.09,0,0,1,.81-.83,2.47,2.47,0,0,1,1.19-.29,2.89,2.89,0,0,1,1.05.18,2,2,0,0,1,.78.51l-.44.56A1.86,1.86,0,0,0,69.28,74.28Z"/><path class="cls-1" d="M73.71,73.82a1.87,1.87,0,0,1,1-.26v.78a1.5,1.5,0,0,0-1.14.37,1.53,1.53,0,0,0-.49,1.05v2.42h-.81v-4.6h.81v1A1.63,1.63,0,0,1,73.71,73.82Z"/><path class="cls-1" d="M79,74.19a2.55,2.55,0,0,1,.55,1.75,1.78,1.78,0,0,1,0,.26H76a1.54,1.54,0,0,0,.51,1,1.51,1.51,0,0,0,1,.37A1.91,1.91,0,0,0,78.88,77l.44.47a2.35,2.35,0,0,1-.82.56,2.78,2.78,0,0,1-1.06.2,2.48,2.48,0,0,1-1.2-.29,2,2,0,0,1-.82-.82,2.43,2.43,0,0,1-.29-1.21,2.41,2.41,0,0,1,.29-1.21,2.06,2.06,0,0,1,.81-.82,2.36,2.36,0,0,1,1.19-.3A2,2,0,0,1,79,74.19Zm-.18,1.39a1.38,1.38,0,0,0-.42-1,1.4,1.4,0,0,0-1-.36,1.47,1.47,0,0,0-1,.36,1.53,1.53,0,0,0-.48,1Z"/><path class="cls-1" d="M83.5,78.18v-.64a1.88,1.88,0,0,1-1.61.68,1.84,1.84,0,0,1-.83-.18,1.26,1.26,0,0,1-.56-.51,1.34,1.34,0,0,1-.2-.72,1.2,1.2,0,0,1,.46-1A2.06,2.06,0,0,1,82,75.46H83.5v-.22a1,1,0,0,0-.3-.75,1.34,1.34,0,0,0-.88-.26,2.51,2.51,0,0,0-1.42.49l-.34-.55a4.22,4.22,0,0,1,.92-.47,3.33,3.33,0,0,1,1-.14,2,2,0,0,1,1.33.42,1.55,1.55,0,0,1,.48,1.18v3Zm-.48-.9a1.12,1.12,0,0,0,.48-.73v-.46H82.15a1.6,1.6,0,0,0-.82.16.59.59,0,0,0-.26.53.68.68,0,0,0,.27.56,1.14,1.14,0,0,0,.72.21A1.65,1.65,0,0,0,83,77.28Z"/><path class="cls-1" d="M88.22,77.88a1.94,1.94,0,0,1-1.08.34,1.22,1.22,0,0,1-.89-.33,1.31,1.31,0,0,1-.34-1V74.36h-.65v-.62h.65V72.5h.82v1.24h1.41v.62H86.73v2.4a.89.89,0,0,0,.14.55.51.51,0,0,0,.42.16,1.39,1.39,0,0,0,.71-.22Z"/><path class="cls-1" d="M90,71.9a.53.53,0,0,1,0,.74.46.46,0,0,1-.36.15.49.49,0,0,1-.36-.15.56.56,0,0,1,0-.74.49.49,0,0,1,.36-.15A.46.46,0,0,1,90,71.9Zm-.76,1.68H90v4.6H89.2Z"/><path class="cls-1" d="M94.72,73.85a2.14,2.14,0,0,1,.84.82,2.44,2.44,0,0,1,.3,1.21,2.41,2.41,0,0,1-.3,1.21,2.16,2.16,0,0,1-.84.83,2.73,2.73,0,0,1-2.45,0,2.16,2.16,0,0,1-.84-.83,2.39,2.39,0,0,1-.3-1.21,2.44,2.44,0,0,1,.3-1.21,2.14,2.14,0,0,1,.84-.82,2.73,2.73,0,0,1,2.45,0Zm-2,.62a1.44,1.44,0,0,0-.54.58,1.89,1.89,0,0,0,0,1.69,1.44,1.44,0,0,0,.54.58,1.57,1.57,0,0,0,.81.2,1.5,1.5,0,0,0,.79-.2,1.4,1.4,0,0,0,.55-.58,1.89,1.89,0,0,0,0-1.69,1.4,1.4,0,0,0-.55-.58,1.51,1.51,0,0,0-.79-.21A1.58,1.58,0,0,0,92.69,74.47Z"/><path class="cls-1" d="M100.81,74a1.79,1.79,0,0,1,.47,1.31v2.84h-.81V75.56a1.14,1.14,0,0,0-1.23-1.24,1.42,1.42,0,0,0-1,.4,1.56,1.56,0,0,0-.43,1v2.46H97v-4.6h.81v1a1.76,1.76,0,0,1,1.74-1A1.7,1.7,0,0,1,100.81,74Z"/><path class="cls-1" d="M108.7,73.85a2.1,2.1,0,0,1,.79.83,2.64,2.64,0,0,1,.28,1.22,2.59,2.59,0,0,1-.28,1.2,2,2,0,0,1-.77.82,2.31,2.31,0,0,1-1.15.29,2.08,2.08,0,0,1-1-.24,1.75,1.75,0,0,1-.7-.7v.91H105V71.73h.81V74.5a1.79,1.79,0,0,1,.69-.7,2.08,2.08,0,0,1,1-.24A2.27,2.27,0,0,1,108.7,73.85Zm-.5,3.45a1.47,1.47,0,0,0,.54-.59,1.84,1.84,0,0,0,0-1.67,1.47,1.47,0,0,0-1.34-.8,1.54,1.54,0,0,0-.8.21,1.49,1.49,0,0,0-.55.59,1.76,1.76,0,0,0-.2.83,1.81,1.81,0,0,0,.2.85,1.46,1.46,0,0,0,.55.58,1.54,1.54,0,0,0,.8.21A1.57,1.57,0,0,0,108.2,77.3Z"/><path class="cls-1" d="M114.36,74.19a2.6,2.6,0,0,1,.55,1.75c0,.12,0,.2,0,.26h-3.64a1.6,1.6,0,0,0,.52,1,1.51,1.51,0,0,0,1,.37,1.94,1.94,0,0,0,.76-.15,1.85,1.85,0,0,0,.61-.42l.45.47a2.35,2.35,0,0,1-.82.56,2.78,2.78,0,0,1-1.06.2,2.52,2.52,0,0,1-1.21-.29,2,2,0,0,1-.81-.82,2.44,2.44,0,0,1-.3-1.21,2.41,2.41,0,0,1,.3-1.21,2.06,2.06,0,0,1,.81-.82,2.34,2.34,0,0,1,1.19-.3A2,2,0,0,1,114.36,74.19Zm-.18,1.39a1.46,1.46,0,0,0-.42-1,1.42,1.42,0,0,0-1-.36,1.45,1.45,0,0,0-1,.36,1.54,1.54,0,0,0-.49,1Z"/><path class="cls-1" d="M120.08,73.58v4.14a2.26,2.26,0,0,1-.29,1.15,1.89,1.89,0,0,1-.82.76,2.73,2.73,0,0,1-1.24.27,3.11,3.11,0,0,1-1.89-.65l.35-.59a2.37,2.37,0,0,0,.71.42,2.28,2.28,0,0,0,.8.13,1.6,1.6,0,0,0,1.14-.4,1.41,1.41,0,0,0,.42-1.07V77.1a1.72,1.72,0,0,1-.66.65,2,2,0,0,1-.95.23,2.1,2.1,0,0,1-1.1-.29,1.9,1.9,0,0,1-.73-.78,2.57,2.57,0,0,1-.26-1.16,2.46,2.46,0,0,1,.26-1.14,1.87,1.87,0,0,1,.73-.77,2.09,2.09,0,0,1,1.1-.28,2,2,0,0,1,1,.22,1.69,1.69,0,0,1,.65.65v-.85Zm-1.52,3.54a1.38,1.38,0,0,0,.52-.55,1.7,1.7,0,0,0,.18-.79,1.76,1.76,0,0,0-.18-.81,1.45,1.45,0,0,0-.52-.55,1.37,1.37,0,0,0-.76-.2,1.39,1.39,0,0,0-.76.2,1.38,1.38,0,0,0-.52.55,1.65,1.65,0,0,0-.2.81,1.62,1.62,0,0,0,.42,1.11,1.39,1.39,0,0,0,1.06.43A1.37,1.37,0,0,0,118.56,77.12Z"/><path class="cls-1" d="M122.32,71.9a.53.53,0,0,1,0,.74.46.46,0,0,1-.36.15.52.52,0,0,1,0-1A.46.46,0,0,1,122.32,71.9Zm-.76,1.68h.81v4.6h-.81Z"/><path class="cls-1" d="M127.77,74a1.79,1.79,0,0,1,.46,1.31v2.84h-.81V75.56a1.26,1.26,0,0,0-.32-.91,1.22,1.22,0,0,0-.9-.33,1.4,1.4,0,0,0-1,.4,1.57,1.57,0,0,0-.44,1v2.46h-.81v-4.6h.81v1a1.77,1.77,0,0,1,1.75-1A1.71,1.71,0,0,1,127.77,74Z"/><path class="cls-1" d="M131.56,74.32a2.25,2.25,0,0,0-.66-.1,1.08,1.08,0,0,0-.58.13.46.46,0,0,0-.23.42.48.48,0,0,0,.25.42,4.37,4.37,0,0,0,.75.29,6.32,6.32,0,0,1,.79.28,1.34,1.34,0,0,1,.51.41,1.06,1.06,0,0,1,.22.71,1.13,1.13,0,0,1-.49,1,2.1,2.1,0,0,1-1.23.34,3,3,0,0,1-1-.16,2.45,2.45,0,0,1-.82-.47l.31-.6a2,2,0,0,0,.71.42,2.21,2.21,0,0,0,.82.16,1.19,1.19,0,0,0,.64-.15.48.48,0,0,0,.25-.45.51.51,0,0,0-.26-.47,3,3,0,0,0-.78-.31,5.16,5.16,0,0,1-.75-.27,1.36,1.36,0,0,1-.5-.4,1.09,1.09,0,0,1-.2-.67,1.11,1.11,0,0,1,.47-1,2,2,0,0,1,1.17-.32,2.92,2.92,0,0,1,.83.12,2.36,2.36,0,0,1,.7.31l-.3.62A3,3,0,0,0,131.56,74.32Z"/></g></svg>