<?xml version="1.0" encoding="utf-8"?>
<!-- Generator: Adobe Illustrator 26.2.1, SVG Export Plug-In . SVG Version: 6.00 Build 0)  -->
<svg version="1.1" id="Capa_1" xmlns="http://www.w3.org/2000/svg" xmlns:xlink="http://www.w3.org/1999/xlink" x="0px" y="0px"
	 viewBox="0 0 100 100" style="enable-background:new 0 0 100 100;" xml:space="preserve">
<style type="text/css">
	.st0{clip-path:url(#SVGID_00000163034642936711853870000011456924987929457288_);}
	.st1{fill:none;stroke:#FFFFFF;stroke-width:2;}
	.st2{clip-path:url(#SVGID_00000028323247802303631140000016567794584069566097_);fill:none;stroke:#FFFFFF;stroke-width:2;}
</style>
<g>
	<defs>
		<rect id="SVGID_1_" x="7.5" y="7.5" width="85" height="85"/>
	</defs>
	<clipPath id="SVGID_00000160888609324594704220000003078153416237284264_">
		<use xlink:href="#SVGID_1_"  style="overflow:visible;"/>
	</clipPath>
	<path style="clip-path:url(#SVGID_00000160888609324594704220000003078153416237284264_);" d="M50,92.5c23.5,0,42.5-19,42.5-42.5
		S73.5,7.5,50,7.5S7.5,26.5,7.5,50S26.5,92.5,50,92.5"/>
</g>
<polygon class="st1" points="40.9,25.3 59.1,25.3 57.9,74.7 52.3,74.7 50,37.6 47.4,74.7 41.7,74.7 "/>
<g>
	<defs>
		<rect id="SVGID_00000099629133870627264690000008879192976197193123_" x="7.5" y="7.5" width="85" height="85"/>
	</defs>
	<clipPath id="SVGID_00000067949773510260731560000012650444249473199295_">
		<use xlink:href="#SVGID_00000099629133870627264690000008879192976197193123_"  style="overflow:visible;"/>
	</clipPath>
	
		<path style="clip-path:url(#SVGID_00000067949773510260731560000012650444249473199295_);fill:none;stroke:#FFFFFF;stroke-width:2;" d="
		M45.8,25.1c0,0,0.3,7.1-4.8,7.7"/>
	
		<path style="clip-path:url(#SVGID_00000067949773510260731560000012650444249473199295_);fill:none;stroke:#FFFFFF;stroke-width:2;" d="
		M54.1,25.1c0,0-0.3,7.1,4.8,7.7"/>
</g>
<polyline class="st1" points="48.7,25.1 48.7,35.5 50.9,34.2 50.9,25.1 "/>
</svg>
