<?xml version="1.0" encoding="utf-8"?>
<!-- Generator: Adobe Illustrator 26.2.1, SVG Export Plug-In . SVG Version: 6.00 Build 0)  -->
<svg version="1.1" id="Capa_1" xmlns="http://www.w3.org/2000/svg" xmlns:xlink="http://www.w3.org/1999/xlink" x="0px" y="0px"
	 viewBox="0 0 100 100" style="enable-background:new 0 0 100 100;" xml:space="preserve">
<style type="text/css">
	.st0{clip-path:url(#SVGID_00000130640057438387833960000006154751730503688834_);fill:#295FAA;}
	.st1{clip-path:url(#SVGID_00000130640057438387833960000006154751730503688834_);fill:none;stroke:#FFFFFF;stroke-width:2.345;}
	.st2{clip-path:url(#SVGID_00000130640057438387833960000006154751730503688834_);fill:#FFFFFF;}
</style>
<g>
	<defs>
		<rect id="SVGID_1_" x="7.5" y="7.5" width="85" height="85"/>
	</defs>
	<clipPath id="SVGID_00000042702885419144911410000006329343235982236073_">
		<use xlink:href="#SVGID_1_"  style="overflow:visible;"/>
	</clipPath>
	<path style="clip-path:url(#SVGID_00000042702885419144911410000006329343235982236073_);fill:#295FAA;" d="M50,92.5
		c23.5,0,42.5-19,42.5-42.5S73.5,7.5,50,7.5S7.5,26.5,7.5,50S26.5,92.5,50,92.5"/>
	
		<path style="clip-path:url(#SVGID_00000042702885419144911410000006329343235982236073_);fill:none;stroke:#FFFFFF;stroke-width:2.345;" d="
		M29.6,74c0,1.8,1.5,3.3,3.3,3.3h34.2c1.8,0,3.3-1.5,3.3-3.3V33.6l-12.3-11H32.9c-1.8,0-3.3,1.5-3.3,3.3V74z"/>
	<path style="clip-path:url(#SVGID_00000042702885419144911410000006329343235982236073_);fill:#FFFFFF;" d="M69,34.4h-9
		c-1.2,0-2.1-1.1-2.1-2.4v-8.7C57.8,22,69,34.4,69,34.4"/>
	
		<path style="clip-path:url(#SVGID_00000042702885419144911410000006329343235982236073_);fill:none;stroke:#FFFFFF;stroke-width:2.345;" d="
		M69,34.4h-9c-1.2,0-2.1-1.1-2.1-2.4v-8.7C57.8,22,69,34.4,69,34.4z"/>
	<path style="clip-path:url(#SVGID_00000042702885419144911410000006329343235982236073_);fill:#FFFFFF;" d="M25.6,46.6
		c-1.8,0-3.3,1.5-3.3,3.3v16.1c0,1.8,1.5,3.3,3.3,3.3h37.3c1.8,0,3.3-1.5,3.3-3.3V49.9c0-1.8-1.5-3.3-3.3-3.3H25.6z"/>
	<path style="clip-path:url(#SVGID_00000042702885419144911410000006329343235982236073_);fill:#295FAA;" d="M51.9,64.1h2.6V60h4.1
		v-2.1h-4.1v-2.6h4.8v-2h-7.4V64.1z M43,62.1v-6.8h1.4c1,0,1.7,0.3,2.2,0.8s0.8,1.4,0.8,2.6c0,1.2-0.3,2-0.8,2.6s-1.2,0.8-2.2,0.8
		H43z M40.3,64.1h4.4c1.8,0,3.2-0.5,4.1-1.4c0.9-0.9,1.3-2.3,1.3-4.1c0-1.8-0.4-3.2-1.3-4.1c-0.9-0.9-2.2-1.4-4.1-1.4h-4.4V64.1z
		 M32.2,58.5v-3.2h1.9c1,0,1.6,0.6,1.6,1.7c0,0.5-0.1,0.9-0.4,1.1c-0.3,0.3-0.6,0.4-1.2,0.4H32.2z M32.2,60.6h2.3c1.3,0,2.3-0.3,3-1
		c0.7-0.7,1.1-1.6,1.1-2.8c0-1.2-0.4-2.1-1.1-2.7c-0.7-0.6-1.7-0.9-3-0.9h-4.9v10.9h2.6V60.6z"/>
</g>
</svg>
