<?xml version="1.0" encoding="utf-8"?>
<!-- Generator: Adobe Illustrator 26.2.1, SVG Export Plug-In . SVG Version: 6.00 Build 0)  -->
<svg version="1.1" id="Capa_1" xmlns="http://www.w3.org/2000/svg" xmlns:xlink="http://www.w3.org/1999/xlink" x="0px" y="0px"
	 viewBox="0 0 100 100" style="enable-background:new 0 0 100 100;" xml:space="preserve">
<style type="text/css">
	.st0{clip-path:url(#SVGID_00000055697716760017479540000016863336951885935763_);fill:#FBBA00;}
	.st1{fill:none;stroke:#FFFFFF;stroke-width:4;}
	.st2{clip-path:url(#SVGID_00000064333520611091060290000010140523622764287421_);fill:none;stroke:#FFFFFF;stroke-width:4;}
</style>
<g>
	<defs>
		<rect id="SVGID_1_" x="7.5" y="7.5" width="85" height="85"/>
	</defs>
	<clipPath id="SVGID_00000125571688101660367000000018421555259783271579_">
		<use xlink:href="#SVGID_1_"  style="overflow:visible;"/>
	</clipPath>
	<path style="clip-path:url(#SVGID_00000125571688101660367000000018421555259783271579_);fill:#FBBA00;" d="M50,92.5
		c23.5,0,42.5-19,42.5-42.5S73.5,7.5,50,7.5S7.5,26.5,7.5,50S26.5,92.5,50,92.5"/>
</g>
<polyline class="st1" points="29.8,32.4 39,32.3 39.2,40.9 "/>
<g>
	<defs>
		<rect id="SVGID_00000142862724158767901560000013615197799943110536_" x="7.5" y="7.5" width="85" height="85"/>
	</defs>
	<clipPath id="SVGID_00000004537576973266719390000007261952493142821285_">
		<use xlink:href="#SVGID_00000142862724158767901560000013615197799943110536_"  style="overflow:visible;"/>
	</clipPath>
	
		<path style="clip-path:url(#SVGID_00000004537576973266719390000007261952493142821285_);fill:none;stroke:#FFFFFF;stroke-width:4;" d="
		M39,33.1c-4.5,2.6-8,6.8-9.8,12.1c-3.7,11.5,2.6,23.8,14,27.6c11.5,3.7,23.8-2.6,27.6-14c3.7-11.5-2.6-23.8-14-27.6"/>
</g>
</svg>
