<?xml version="1.0" encoding="utf-8"?>
<!-- Generator: Adobe Illustrator 26.2.1, SVG Export Plug-In . SVG Version: 6.00 Build 0)  -->
<svg version="1.1" id="Capa_1" xmlns="http://www.w3.org/2000/svg" xmlns:xlink="http://www.w3.org/1999/xlink" x="0px" y="0px"
	 viewBox="0 0 100 100" style="enable-background:new 0 0 100 100;" xml:space="preserve">
<style type="text/css">
	.st0{clip-path:url(#SVGID_00000161626759902522567810000004208182234733845392_);}
	.st1{clip-path:url(#SVGID_00000161626759902522567810000004208182234733845392_);fill:none;stroke:#FFFFFF;stroke-width:2;}
	.st2{fill:none;stroke:#FFFFFF;stroke-width:2;}
	.st3{clip-path:url(#SVGID_00000063618610823142282080000010307765031210975410_);fill:none;stroke:#FFFFFF;stroke-width:2;}
</style>
<g>
	<defs>
		<rect id="SVGID_1_" x="7.5" y="7.5" width="85" height="85"/>
	</defs>
	<clipPath id="SVGID_00000022527806259640203850000018328082112918332315_">
		<use xlink:href="#SVGID_1_"  style="overflow:visible;"/>
	</clipPath>
	<path style="clip-path:url(#SVGID_00000022527806259640203850000018328082112918332315_);" d="M50,92.5c23.5,0,42.5-19,42.5-42.5
		S73.5,7.5,50,7.5S7.5,26.5,7.5,50S26.5,92.5,50,92.5"/>
	
		<path style="clip-path:url(#SVGID_00000022527806259640203850000018328082112918332315_);fill:none;stroke:#FFFFFF;stroke-width:2;" d="
		M39.9,30.6l11.2,14.1h4.5l7.2,4.6c0,0-2.5,1.1-7.4,1.1c-4.9,0-7.3-0.9-7.3-0.9s-4.7-9.3-8.3-9.3c-3.6,0-4.4-3.2-2.9-5.6
		C38.4,32.1,39.9,30.6,39.9,30.6z"/>
</g>
<polyline class="st2" points="37.5,39.4 37.5,49.7 40.3,49.7 40.3,40.1 "/>
<g>
	<defs>
		<rect id="SVGID_00000003095288780501739700000006358800709854091703_" x="7.5" y="7.5" width="85" height="85"/>
	</defs>
	<clipPath id="SVGID_00000013876948849503608110000007261996722814538407_">
		<use xlink:href="#SVGID_00000003095288780501739700000006358800709854091703_"  style="overflow:visible;"/>
	</clipPath>
	
		<path style="clip-path:url(#SVGID_00000013876948849503608110000007261996722814538407_);fill:none;stroke:#FFFFFF;stroke-width:2;" d="
		M47.5,57l11.1,4l5.6,1.5c0,0,0,7.2-4.7,7.2H37.3c0,0-2.3-5.7-1.1-8.2c1.1-2.6,2.6-4.5,2.6-4.5s0.6,3.3,3.5,3.3
		C45.2,60.3,47.5,57,47.5,57z"/>
</g>
<line class="st2" x1="36.2" y1="66.8" x2="62.8" y2="66.8"/>
<line class="st2" x1="49.5" y1="58" x2="47.7" y2="60.8"/>
<line class="st2" x1="52.6" y1="59" x2="50.8" y2="61.8"/>
<line class="st2" x1="55.7" y1="60" x2="53.9" y2="62.8"/>
</svg>
