<?xml version="1.0" encoding="utf-8"?>
<!-- Generator: Adobe Illustrator 26.2.1, SVG Export Plug-In . SVG Version: 6.00 Build 0)  -->
<svg version="1.1" id="Capa_1" xmlns="http://www.w3.org/2000/svg" xmlns:xlink="http://www.w3.org/1999/xlink" x="0px" y="0px"
	 viewBox="0 0 100 100" style="enable-background:new 0 0 100 100;" xml:space="preserve">
<style type="text/css">
	.st0{clip-path:url(#SVGID_00000138566237666624628860000001030505784029327260_);}
	.st1{clip-path:url(#SVGID_00000138566237666624628860000001030505784029327260_);fill:none;stroke:#FFFFFF;stroke-width:2;}
</style>
<g>
	<defs>
		<rect id="SVGID_1_" x="7.5" y="7.5" width="85" height="85"/>
	</defs>
	<clipPath id="SVGID_00000043420227213966460560000008724897106600043433_">
		<use xlink:href="#SVGID_1_"  style="overflow:visible;"/>
	</clipPath>
	<path style="clip-path:url(#SVGID_00000043420227213966460560000008724897106600043433_);" d="M50,92.5c23.5,0,42.5-19,42.5-42.5
		S73.5,7.5,50,7.5S7.5,26.5,7.5,50S26.5,92.5,50,92.5"/>
	
		<path style="clip-path:url(#SVGID_00000043420227213966460560000008724897106600043433_);fill:none;stroke:#FFFFFF;stroke-width:2;" d="
		M50.3,38.1h-6c0,0-3.5,0-5.5,2.2c-2,2.2-5.9,6.9-5.9,6.9l5,4.1l3.2-3.1l-0.7,23.2h19.4l-1.1-23.7l3.3,4.3l5.1-4.5L61.2,40
		c0,0-1.5-1.9-3.8-1.9H50.3z"/>
	
		<path style="clip-path:url(#SVGID_00000043420227213966460560000008724897106600043433_);fill:none;stroke:#FFFFFF;stroke-width:2;" d="
		M48.4,30.5c0,0-0.4-1.9,1.6-1.9s1.9,1.3,1.9,1.9c0,0.6-1.8,1.3-1.8,1.3V34l-4.8,4c0,0,0.4,3.7,4.7,3.7c4.3,0,4.5-3.8,4.5-3.8
		l-4.3-3.8"/>
</g>
</svg>
